#!OML:ASF H:\Dans Jumps\Project 1\Capture day 1\Session 1\subject.ASF
:FULLY-SPECIFIED
:DEGREES
378
root 0.26154 13.6893 -14.9008 37.5676 1.08426 -2.28249
lowerback 38.2701 1.76231 -1.73476
upperback 4.58373 1.91523 2.72786
thorax -13.9622 0.946621 3.055
lowerneck -20.8685 0.0273095 -1.54432
upperneck -11.4929 0.307729 -1.64204
head -0.284713 0.19468 -0.245933
rclavicle 7.35503e-015 1.22253e-014
rhumerus -46.8858 -19.466 -63.4558
rradius 21.8216
rwrist 35.7132
rhand -19.2648 -20.6863
rfingers 7.12502
rthumb 7.04952 -50.5489
lclavicle 7.35503e-015 1.22253e-014
lhumerus -44.2858 12.316 72.1611
lradius 10.1832
lwrist -3.47858
lhand -21.8613 -6.07586
lfingers 7.12502
lthumb 4.5427 23.8554
rfemur -87.3578 -1.83734 22.819
rtibia 87.6027
rfoot -34.8981 -16.0612
rtoes -1.63765
lfemur -87.7285 6.61526 -21.1085
ltibia 87.5488
lfoot -30.6644 21.3685
ltoes -14.9299
379
root 0.26197 13.7562 -14.7617 37.646 1.04144 -2.30804
lowerback 37.3503 1.78636 -1.80938
upperback 4.44639 1.92963 2.71912
thorax -13.7876 0.961707 3.08855
lowerneck -21.013 0.0422281 -1.49661
upperneck -11.1422 0.328291 -1.62445
head -0.145552 0.198748 -0.246517
rclavicle 6.16232e-015 4.57205e-015
rhumerus -44.9778 -18.886 -64.5457
rradius 22.6662
rwrist 34.9968
rhand -19.5172 -20.9259
rfingers 7.12502
rthumb 6.80587 -50.7965
lclavicle 6.16232e-015 4.57205e-015
lhumerus -42.4115 11.5385 73.2254
lradius 10.8851
lwrist -2.4736
lhand -22.2527 -6.34938
lfingers 7.12502
lthumb 4.16472 23.5897
rfemur -86.3694 -1.63888 22.6814
rtibia 86.9517
rfoot -35.0652 -16.4721
rtoes -2.30272
lfemur -86.7187 6.51569 -20.8706
ltibia 86.9277
lfoot -30.733 21.7709
ltoes -15.6359
380
root 0.263977 13.8279 -14.6217 37.7499 0.988687 -2.35652
lowerback 36.3574 1.8041 -1.86573
upperback 4.27298 1.94594 2.708
thorax -13.6178 0.977543 3.11075
lowerneck -21.177 0.0580288 -1.44775
upperneck -10.7228 0.351134 -1.59967
head 0.0202517 0.203305 -0.244793
rclavicle -8.94531e-015 -1.77912e-014
rhumerus -43.0625 -18.2486 -65.5963
rradius 23.6323
rwrist 34.1615
rhand -19.7809 -21.2262
rfingers 7.12502
rthumb 6.55135 -51.1048
lclavicle -8.94531e-015 -1.77912e-014
lhumerus -40.6002 10.3739 74.4686
lradius 11.8198
lwrist -0.883744
lhand -22.7103 -6.56652
lfingers 7.12502
lthumb 3.72288 23.3807
rfemur -85.3712 -1.43105 22.5609
rtibia 86.2079
rfoot -35.1824 -16.8514
rtoes -3.08332
lfemur -85.7075 6.4371 -20.6341
ltibia 86.2303
lfoot -30.7421 22.1505
ltoes -16.3636
381
root 0.26482 13.9079 -14.4784 37.7924 0.964819 -2.39618
lowerback 35.319 1.80636 -1.92159
upperback 4.14788 1.94816 2.70918
thorax -13.4843 0.988156 3.14535
lowerneck -21.3662 0.0709828 -1.39948
upperneck -10.2086 0.372208 -1.55736
head 0.222832 0.206325 -0.237376
rclavicle -1.47101e-014 -1.6201e-014
rhumerus -41.1741 -17.4908 -66.639
rradius 24.7571
rwrist 33.0858
rhand -20.0281 -21.5909
rfingers 7.12502
rthumb 6.31269 -51.4768
lclavicle -1.47101e-014 -1.6201e-014
lhumerus -38.8956 8.93819 75.7533
lradius 12.9866
lwrist 1.3766
lhand -23.2157 -6.65124
lfingers 7.12502
lthumb 3.23475 23.304
rfemur -84.2337 -1.24461 22.4513
rtibia 85.3668
rfoot -35.2817 -17.2231
rtoes -3.96808
lfemur -84.5673 6.36649 -20.4014
ltibia 85.4381
lfoot -30.7273 22.4896
ltoes -17.1141
382
root 0.265549 13.9954 -14.3318 37.7614 0.965564 -2.43393
lowerback 34.4016 1.7952 -1.95947
upperback 3.9183 1.93972 2.71098
thorax -13.3897 0.993837 3.18288
lowerneck -21.5979 0.0786708 -1.35076
upperneck -9.56283 0.388586 -1.49501
head 0.478039 0.206091 -0.223775
rclavicle 1.09332e-014 6.36111e-015
rhumerus -39.3468 -16.5608 -67.6916
rradius 26.0544
rwrist 31.67
rhand -20.3298 -21.9789
rfingers 7.12502
rthumb 6.02146 -51.8733
lclavicle 1.09332e-014 6.36111e-015
lhumerus -37.3344 7.32632 76.9958
lradius 14.4002
lwrist 4.32459
lhand -23.8357 -6.61495
lfingers 7.12502
lthumb 2.63602 23.3485
rfemur -82.9429 -1.08723 22.3591
rtibia 84.4261
rfoot -35.3693 -17.551
rtoes -4.87043
lfemur -83.2891 6.30496 -20.1713
ltibia 84.5513
lfoot -30.6791 22.7975
ltoes -17.9092
383
root 0.266678 14.0903 -14.1814 37.6449 0.990067 -2.46459
lowerback 33.5283 1.76829 -1.98424
upperback 3.67115 1.91707 2.71728
thorax -13.3227 0.99305 3.22394
lowerneck -21.8791 0.0814526 -1.30168
upperneck -8.766 0.400543 -1.41069
head 0.795017 0.202944 -0.203307
rclavicle -7.35503e-015 -2.28602e-014
rhumerus -37.6101 -15.4073 -68.7602
rradius 27.5531
rwrist 29.9133
rhand -20.6728 -22.3554
rfingers 7.12502
rthumb 5.69031 -52.259
lclavicle -7.35503e-015 -2.28602e-014
lhumerus -35.9266 5.70706 78.0956
lradius 16.0454
lwrist 7.80339
lhand -24.5846 -6.5422
lfingers 7.12502
lthumb 1.91274 23.429
rfemur -81.4819 -0.973902 22.2834
rtibia 83.3827
rfoot -35.4367 -17.8272
rtoes -5.81527
lfemur -81.8543 6.24719 -19.9473
ltibia 83.5656
lfoot -30.6035 23.0674
ltoes -18.7564
384
root 0.268253 14.1938 -14.0256 37.427 1.03548 -2.49381
lowerback 32.7026 1.72879 -1.99642
upperback 3.41634 1.88299 2.72738
thorax -13.2749 0.986697 3.26647
lowerneck -22.1968 0.0813651 -1.2442
upperneck -7.82571 0.407567 -1.31199
head 1.17085 0.196834 -0.179817
rclavicle 4.17448e-015 6.26172e-015
rhumerus -35.98 -14.0617 -69.8151
rradius 29.2142
rwrist 27.9596
rhand -21.0503 -22.6875
rfingers 7.12502
rthumb 5.32578 -52.6006
lclavicle 4.17448e-015 6.26172e-015
lhumerus -34.6646 4.21631 78.9881
lradius 17.8884
lwrist 11.5751
lhand -25.4775 -6.5975
lfingers 7.12502
lthumb 1.05039 23.3797
rfemur -79.8158 -0.904872 22.2311
rtibia 82.2196
rfoot -35.4778 -18.0674
rtoes -6.84156
lfemur -80.2305 6.19743 -19.7173
ltibia 82.4707
lfoot -30.5037 23.291
ltoes -19.6714
385
root 0.270532 14.3067 -13.8631 37.0872 1.10168 -2.52391
lowerback 31.9326 1.67691 -1.99637
upperback 3.16698 1.83751 2.7461
thorax -13.2359 0.974528 3.31547
lowerneck -22.5224 0.083123 -1.17945
upperneck -6.77532 0.41438 -1.21281
head 1.59105 0.190651 -0.157306
rclavicle 8.15017e-015 1.19271e-014
rhumerus -34.4543 -12.561 -70.8146
rradius 30.9782
rwrist 26.0501
rhand -21.4483 -22.9249
rfingers 7.12502
rthumb 4.94145 -52.8473
lclavicle 8.15017e-015 1.19271e-014
lhumerus -33.532 2.91278 79.6828
lradius 19.8648
lwrist 15.3387
lhand -26.3247 -6.79886
lfingers 7.12502
lthumb 0.232154 23.1808
rfemur -77.9053 -0.880212 22.2009
rtibia 80.9196
rfoot -35.4929 -18.278
rtoes -7.94884
lfemur -78.3799 6.1506 -19.4679
ltibia 81.2559
lfoot -30.3786 23.4613
ltoes -20.6555
386
root 0.273175 14.4294 -13.6925 36.6341 1.17983 -2.55541
lowerback 31.1938 1.61845 -1.99777
upperback 2.92992 1.78363 2.7767
thorax -13.1897 0.958432 3.38074
lowerneck -22.8101 0.0923639 -1.10855
upperneck -5.6704 0.427184 -1.12951
head 2.0296 0.187828 -0.140512
rclavicle -9.93923e-016 -7.45443e-015
rhumerus -33.0242 -10.974 -71.7153
rradius 32.7773
rwrist 24.4689
rhand -21.8099 -23.1005
rfingers 7.12502
rthumb 4.59229 -53.0308
lclavicle -9.93923e-016 -7.45443e-015
lhumerus -32.5073 1.825 80.2021
lradius 21.9205
lwrist 18.8325
lhand -27.0026 -7.07768
lfingers 7.12502
lthumb -0.422605 22.9016
rfemur -75.7572 -0.889434 22.1891
rtibia 79.4678
rfoot -35.4574 -18.4804
rtoes -9.15518
lfemur -76.307 6.11079 -19.1984
ltibia 79.9145
lfoot -30.2159 23.5642
ltoes -21.6956
387
root 0.275527 14.5615 -13.5137 36.0732 1.27323 -2.58338
lowerback 30.4843 1.55436 -2.00597
upperback 2.70548 1.72112 2.82174
thorax -13.1362 0.938678 3.46789
lowerneck -23.0165 0.111781 -1.03072
upperneck -4.56378 0.448931 -1.07813
head 2.46027 0.189598 -0.134743
rclavicle -5.76476e-015 -3.97569e-016
rhumerus -31.6813 -9.37863 -72.4899
rradius 34.5526
rwrist 23.3814
rhand -22.085 -23.2435
rfingers 7.12502
rthumb 4.32665 -53.1793
lclavicle -5.76476e-015 -3.97569e-016
lhumerus -31.5685 0.890284 80.6094
lradius 23.9716
lwrist 21.8325
lhand -27.4823 -7.32324
lfingers 7.12502
lthumb -0.885877 22.6547
rfemur -73.3834 -0.926298 22.1911
rtibia 77.861
rfoot -35.3494 -18.6889
rtoes -10.4486
lfemur -74.0284 6.07522 -18.9127
ltibia 78.4498
lfoot -29.9964 23.569
ltoes -22.716
388
root 0.277752 14.703 -13.3254 35.4023 1.3837 -2.60986
lowerback 29.7928 1.48567 -2.01276
upperback 2.49993 1.65421 2.88257
thorax -13.0639 0.916534 3.5722
lowerneck -23.1196 0.144798 -0.94341
upperneck -3.47776 0.484906 -1.07774
head 2.87036 0.197526 -0.146564
rclavicle 3.77691e-015 -1.71949e-014
rhumerus -30.4216 -7.86304 -73.1246
rradius 36.2691
rwrist 22.8021
rhand -22.257 -23.3732
rfingers 7.12502
rthumb 4.16061 -53.3123
lclavicle 3.77691e-015 -1.71949e-014
lhumerus -30.7 0.0091964 80.9764
lradius 25.9434
lwrist 24.218
lhand -27.8223 -7.50157
lfingers 7.12502
lthumb -1.21426 22.4747
rfemur -70.7837 -0.98938 22.2078
rtibia 76.1025
rfoot -35.1635 -18.8846
rtoes -11.7577
lfemur -71.5504 6.04685 -18.621
ltibia 76.8736
lfoot -29.6996 23.4784
ltoes -23.7031
389
root 0.279731 14.8524 -13.1267 34.6049 1.49601 -2.62751
lowerback 29.1287 1.42096 -2.02868
upperback 2.32292 1.58904 2.95216
thorax -12.967 0.894807 3.68918
lowerneck -23.5512 0.174274 -0.897559
upperneck -1.78012 0.536192 -1.09421
head 3.06129 0.207434 -0.153752
rclavicle 9.93923e-016 -2.16675e-014
rhumerus -29.2487 -6.51145 -73.6292
rradius 37.9281
rwrist 22.6141
rhand -22.3199 -23.5342
rfingers 7.12502
rthumb 4.09985 -53.4745
lclavicle 9.93923e-016 -2.16675e-014
lhumerus -29.868 -0.876388 81.3414
lradius 27.7746
lwrist 25.9735
lhand -28.0428 -7.47405
lfingers 7.12502
lthumb -1.42724 22.5009
rfemur -67.9536 -1.06946 22.221
rtibia 74.2148
rfoot -34.8983 -19.0283
rtoes -12.9986
lfemur -68.8733 6.03718 -18.3522
ltibia 75.2098
lfoot -29.3064 23.2946
ltoes -24.6208
